<svg width="200" height="200" viewBox="0 0 200 200" xmlns="http://www.w3.org/2000/svg">
  <defs>
    <pattern id="circuit" width="100" height="100" patternUnits="userSpaceOnUse">
      <!-- Horizontal lines -->
      <line x1="0" y1="20" x2="100" y2="20" stroke="currentColor" stroke-width="1" />
      <line x1="0" y1="60" x2="100" y2="60" stroke="currentColor" stroke-width="1" />
      
      <!-- Vertical lines -->
      <line x1="20" y1="0" x2="20" y2="100" stroke="currentColor" stroke-width="1" />
      <line x1="80" y1="0" x2="80" y2="100" stroke="currentColor" stroke-width="1" />
      
      <!-- Nodes -->
      <circle cx="20" cy="20" r="3" fill="currentColor" />
      <circle cx="80" cy="20" r="3" fill="currentColor" />
      <circle cx="20" cy="60" r="3" fill="currentColor" />
      <circle cx="80" cy="60" r="3" fill="currentColor" />
      
      <!-- Diagonal connections -->
      <path d="M20,20 C40,30 60,10 80,20" fill="none" stroke="currentColor" stroke-width="1" />
      <path d="M20,60 C30,40 70,80 80,60" fill="none" stroke="currentColor" stroke-width="1" />
      <path d="M20,20 C30,30 10,50 20,60" fill="none" stroke="currentColor" stroke-width="1" />
      <path d="M80,20 C70,30 90,50 80,60" fill="none" stroke="currentColor" stroke-width="1" />
    </pattern>
  </defs>
  <rect width="100%" height="100%" fill="url(#circuit)" />
</svg>
